<svg width="1200" height="800" viewBox="0 0 1200 800" fill="none" xmlns="http://www.w3.org/2000/svg">
  <rect width="1200" height="800" fill="#050816"/>
  <rect x="96" y="68" width="1008" height="664" rx="34" fill="#10152D" stroke="#915EFF" stroke-opacity="0.5" stroke-width="2"/>
  <rect x="150" y="140" width="330" height="520" rx="42" fill="#07111F" stroke="#FFFFFF" stroke-opacity="0.16" stroke-width="4"/>
  <rect x="184" y="196" width="262" height="56" rx="18" fill="#00CEA8" fill-opacity="0.18"/>
  <rect x="184" y="290" width="210" height="30" rx="10" fill="#AAA6C3" fill-opacity="0.5"/>
  <rect x="184" y="350" width="248" height="30" rx="10" fill="#AAA6C3" fill-opacity="0.32"/>
  <rect x="184" y="430" width="262" height="126" rx="22" fill="#151030"/>
  <path d="M220 493H410M220 531H354" stroke="#00CEA8" stroke-width="14" stroke-linecap="round"/>
  <rect x="560" y="164" width="430" height="98" rx="24" fill="#151030"/>
  <rect x="560" y="300" width="430" height="98" rx="24" fill="#151030"/>
  <rect x="560" y="436" width="430" height="98" rx="24" fill="#151030"/>
  <path d="M602 213H804M602 349H880M602 485H838" stroke="#FFFFFF" stroke-opacity="0.72" stroke-width="18" stroke-linecap="round"/>
  <circle cx="946" cy="213" r="18" fill="#00CEA8"/>
  <circle cx="946" cy="349" r="18" fill="#915EFF"/>
  <circle cx="946" cy="485" r="18" fill="#00CEA8"/>
  <text x="560" y="634" fill="#FFFFFF" font-family="Segoe UI, Arial, sans-serif" font-size="58" font-weight="800">SnapOps AI</text>
  <text x="560" y="682" fill="#AAA6C3" font-family="Segoe UI, Arial, sans-serif" font-size="28">AI operations assistant for service teams</text>
</svg>
